<svg xmlns="http://www.w3.org/2000/svg" viewBox="0 0 64 64" role="img" aria-label="ClashFox">
  <defs>
    <linearGradient id="bg" x1="10" y1="8" x2="54" y2="58" gradientUnits="userSpaceOnUse">
      <stop offset="0" stop-color="#e8f7ff"/>
      <stop offset="0.52" stop-color="#f7fbff"/>
      <stop offset="1" stop-color="#fff0df"/>
    </linearGradient>
    <linearGradient id="mark" x1="16" y1="14" x2="49" y2="51" gradientUnits="userSpaceOnUse">
      <stop offset="0" stop-color="#ff8a4c"/>
      <stop offset="0.46" stop-color="#ffb15f"/>
      <stop offset="1" stop-color="#2fb7a6"/>
    </linearGradient>
    <linearGradient id="line" x1="21" y1="24" x2="47" y2="46" gradientUnits="userSpaceOnUse">
      <stop offset="0" stop-color="#2563eb"/>
      <stop offset="1" stop-color="#20b486"/>
    </linearGradient>
    <filter id="shadow" x="-20%" y="-20%" width="140%" height="140%">
      <feDropShadow dx="0" dy="5" stdDeviation="4" flood-color="#33506f" flood-opacity="0.22"/>
    </filter>
  </defs>
  <rect width="64" height="64" rx="16" fill="url(#bg)"/>
  <rect x="5" y="5" width="54" height="54" rx="13" fill="#ffffff" opacity="0.34"/>
  <path d="M14 17c0-1.8 1.9-2.9 3.4-2l9.1 5.3c3.4-1.2 7.1-1.2 10.5 0l9.6-5.4c1.5-.9 3.4.2 3.4 2v13.7c0 12-8.6 20.4-18 20.4s-18-8.4-18-20.4V17z" fill="url(#mark)" filter="url(#shadow)"/>
  <path d="M19.5 19.6l6.6 4.1-7.4 5.2v-7.7c0-1.2.8-2 1.8-1.6zM44.5 19.6l-6.6 4.1 7.4 5.2v-7.7c0-1.2-.8-2-1.8-1.6z" fill="#fff4e8" opacity="0.86"/>
  <path d="M22 35.5c3.2-5.2 16.8-5.2 20 0-1.7 6.2-6.3 10.1-10 10.1s-8.3-3.9-10-10.1z" fill="#ffffff" opacity="0.84"/>
  <path d="M24 36h16M28 31l4 4 4-4M32 35v8" fill="none" stroke="url(#line)" stroke-width="3" stroke-linecap="round" stroke-linejoin="round"/>
  <circle cx="24.5" cy="30" r="2" fill="#16304f"/>
  <circle cx="39.5" cy="30" r="2" fill="#16304f"/>
</svg>
